<svg width="24" height="20" viewBox="0 0 24 20" fill="" xmlns="http://www.w3.org/2000/svg">
<path d="M7.40097 19.9987H16.5867C18.3158 19.9987 19.1935 19.1333 19.2205 17.4132L19.3345 8.7749L21.3301 9.22445C22.2933 9.43157 22.9266 9.0404 23.1451 8.08916L23.9279 4.85545C24.1539 3.90674 23.7775 3.21454 22.8665 2.83311L16.5959 0.169747C16.1867 -0.0119553 15.8192 -0.00456455 15.4468 0.177138C14.2311 0.751451 13.3072 1.02365 11.9984 1.02365C10.6805 1.02365 9.75823 0.751451 8.54257 0.177138C8.16854 -0.00456455 7.8026 -0.0119553 7.39341 0.169747L1.12283 2.83311C0.210169 3.21454 -0.157201 3.90674 0.0614554 4.85545L0.842527 8.08916C1.06119 9.0404 1.69606 9.43157 2.65919 9.22445L4.66065 8.7749L4.7688 17.4132C4.79422 19.1333 5.67191 19.9987 7.40097 19.9987ZM11.9984 3.99471C10.5415 3.99471 9.4615 3.234 9.01972 2.03094C9.93851 2.36226 10.9583 2.5427 11.9984 2.5427C13.031 2.5427 14.0582 2.36226 14.9696 2.03094C14.5352 3.2176 13.4701 3.99471 11.9984 3.99471Z" fill=""/>
</svg>
