<svg width="19" height="17" viewBox="0 0 19 17" fill="none" xmlns="http://www.w3.org/2000/svg">
<path d="M17.9114 3.77111L11.1993 0.700688C10.4828 0.377368 9.893 0.222576 9.31308 0.235075C8.73883 0.222576 8.14906 0.377368 7.4269 0.700688L0.720392 3.77111C0.246266 3.98636 0 4.37366 0 4.77831C0 5.18167 0.246266 5.5671 0.720392 5.78422L3.39157 6.99248L7.84128 4.91456C7.80747 4.8702 7.79621 4.82267 7.79621 4.77831C7.79621 4.28635 8.55752 3.92823 9.33564 3.92823C10.1181 3.92823 10.8694 4.28383 10.8694 4.77831C10.8694 5.28276 10.1206 5.64774 9.33564 5.64774C9.09414 5.64774 8.8527 5.61093 8.63997 5.54858L4.45121 7.49699L7.4269 8.86031C8.14906 9.19171 8.73883 9.33405 9.31308 9.32591C9.893 9.33405 10.4828 9.18925 11.1993 8.86031L17.9114 5.78422C18.3855 5.56341 18.6318 5.18167 18.6318 4.77831C18.6318 4.37366 18.3855 3.98636 17.9114 3.77111ZM4.42869 8.58629V12.6221C5.61827 13.3386 7.30847 13.7705 9.31308 13.7705C13.3525 13.7705 16.1019 12.0257 16.1019 9.89687V7.7137L11.6154 9.7656C10.7873 10.1476 10.0309 10.3379 9.31308 10.3311C8.60094 10.3379 7.84017 10.1476 7.00948 9.7656L4.42869 8.58629ZM2.52997 7.71493V9.89687C2.52997 10.4931 2.84862 11.2052 3.42219 11.8147V8.12796L2.52997 7.71493ZM3.42219 14.109L4.42869 14.1102V12.6221C4.03092 12.3851 3.69044 12.1133 3.42219 11.8147V14.109ZM2.82157 14.2535V16.0361C2.82157 16.6194 3.20148 16.9993 3.78479 16.9993H4.05922C4.64254 16.9993 5.02244 16.6194 5.02244 16.0361V14.2535C5.02244 13.6689 4.64254 13.2902 4.05922 13.2902H3.78479C3.20148 13.2902 2.82157 13.6689 2.82157 14.2535Z" fill="#D07646"/>
</svg>
