<svg width="22" height="18" viewBox="0 0 22 18" fill="none" xmlns="http://www.w3.org/2000/svg">
<path d="M2.33911 15.0326H19.2366C20.7744 15.0326 21.5757 14.2675 21.5757 12.6934V2.91614C21.5757 1.34904 20.7744 0.583984 19.2366 0.583984H2.33911C0.801367 0.583984 0 1.34904 0 2.91614V12.6934C0 14.2675 0.801367 15.0326 2.33911 15.0326ZM6.44726 18.0001H15.1269C15.549 18.0001 15.898 17.6519 15.898 17.232C15.898 16.8121 15.549 16.4623 15.1269 16.4623H6.44726C6.02664 16.4623 5.67762 16.8121 5.67762 17.232C5.67762 17.6519 6.02664 18.0001 6.44726 18.0001Z" fill="#F8961E"/>
</svg>
