<svg width="20" height="20" viewBox="0 0 20 20" fill="none" xmlns="http://www.w3.org/2000/svg">
<path fill-rule="evenodd" clip-rule="evenodd" d="M16.4674 19.9991H3.51114C1.20092 19.9991 0 18.8158 0 16.523V3.49654C0 1.20195 1.20092 0.0205078 3.51114 0.0205078H16.4674C18.7864 0.0205078 19.9785 1.21073 19.9785 3.49654V16.523C19.9785 18.8069 18.7864 19.9991 16.4674 19.9991ZM9.50798 15.7345C9.50798 16.0391 9.72308 16.2473 10.0151 16.2473C10.3071 16.2473 10.533 16.0391 10.533 15.7345V14.9888C12.3311 14.8263 13.6756 13.7981 13.6756 12.1034C13.6756 10.5876 12.6997 9.68931 10.7665 9.33529L10.533 9.28387V6.49907C11.2411 6.62666 11.733 7.04945 11.95 7.70515C12.1014 8.07163 12.3502 8.29148 12.7419 8.29148C13.1859 8.29148 13.4988 7.99499 13.4988 7.56728C13.4988 7.45261 13.4707 7.33024 13.4432 7.21054C13.4413 7.20243 13.4395 7.19433 13.4376 7.18625C13.141 6.0367 12.0228 5.20868 10.533 5.05199V4.30745C10.533 4.00283 10.3071 3.79455 10.0151 3.79455C9.72308 3.79455 9.50798 4.00283 9.50798 4.30745V5.05199C7.75925 5.22238 6.51337 6.29251 6.51337 7.8537C6.51337 9.29629 7.47453 10.1389 9.33097 10.572L9.50798 10.6145V13.5563C8.60995 13.4287 8.08591 12.9337 7.9078 12.2849C7.76117 11.8784 7.49679 11.6841 7.11683 11.6841C6.65936 11.6841 6.35517 11.9902 6.35517 12.4333C6.35517 12.5606 6.3785 12.6919 6.42217 12.8182C6.73836 14.009 7.92687 14.8417 9.50798 14.9732V15.7345ZM9.50798 6.49137V9.0191L9.43108 8.99769C8.54573 8.74338 8.13579 8.34307 8.13579 7.74796C8.13579 7.13829 8.65191 6.6288 9.50798 6.49137ZM10.533 13.5563V10.858L10.7346 10.9145C11.7144 11.1745 12.0639 11.5828 12.0639 12.2168C12.0639 12.9181 11.5566 13.4375 10.533 13.5563Z" fill="#F3722C"/>
</svg>
