<svg width="12" height="19" viewBox="0 0 12 19" fill="none" xmlns="http://www.w3.org/2000/svg">
<path d="M2.84352 18.8158C3.54618 18.8158 3.97937 18.4182 3.9714 17.7415L3.80909 8.70852C3.80766 8.3879 3.92007 8.19497 4.18298 8.07476C5.26974 7.58795 5.74853 7.07583 5.68556 5.60182L5.45803 0.718441C5.43922 0.341842 5.22046 0.12532 4.87209 0.12532C4.53678 0.12532 4.33254 0.352684 4.33541 0.735822L4.39265 5.47506C4.39552 5.76412 4.22013 5.94238 3.95562 5.94238C3.6817 5.94238 3.49611 5.77353 3.49467 5.49754L3.41209 0.585149C3.40411 0.220825 3.19046 0 2.84352 0C2.49657 0 2.28946 0.220825 2.28149 0.585149L2.20033 5.49754C2.19889 5.77066 2.01187 5.94238 1.73795 5.94238C1.47344 5.94238 1.29151 5.76412 1.29295 5.47506L1.35306 0.735822C1.35449 0.352684 1.15822 0.12532 0.816381 0.12532C0.468001 0.12532 0.247812 0.343277 0.228998 0.718441L0.00657811 5.60182C-0.0629381 7.07583 0.417298 7.58795 1.50549 8.07476C1.7684 8.19497 1.87937 8.3879 1.87794 8.70852L1.72217 17.7415C1.71132 18.4196 2.14373 18.8158 2.84352 18.8158ZM9.17954 11.7623L9.02362 17.7088C9.00117 18.4196 9.44519 18.8158 10.1384 18.8158C10.8491 18.8158 11.2794 18.4458 11.2794 17.7822V0.620864C11.2794 0.209984 11.0018 0 10.6905 0C10.3803 0 10.1738 0.163746 9.91153 0.544173C8.61083 2.36452 7.71843 5.87732 7.71843 9.059V9.48404C7.71843 10.0556 7.9134 10.4565 8.35654 10.7497L8.77954 11.037C9.07369 11.2392 9.19403 11.4524 9.17954 11.7623Z" fill="#90BE6D"/>
</svg>
