<svg width="16" height="20" viewBox="0 0 16 20" fill="none" xmlns="http://www.w3.org/2000/svg">
<path d="M2.99986 19.9941H12.8397C14.8124 19.9941 15.8395 18.9576 15.8395 16.9698V3.03182C15.8395 1.03641 14.8199 0 12.8397 0H10.5816C10.2209 0 9.99519 0.261595 9.99519 0.617411C9.99519 0.668585 9.99519 0.723084 9.99519 0.768345C9.99519 1.97915 9.17731 2.70298 7.91976 2.70298C6.66222 2.70298 5.84436 1.97915 5.84436 0.768345C5.84436 0.723084 5.84436 0.668585 5.84436 0.617411C5.84436 0.261595 5.6186 0 5.25965 0H2.99986C1.02126 0 0 1.03641 0 3.03182V16.9698C0 18.9576 1.02883 19.9941 2.99986 19.9941ZM4.51531 7.07955C4.17113 7.07955 3.91932 6.82017 3.91932 6.47433C3.91932 6.14697 4.17113 5.89092 4.51531 5.89092H11.3302C11.6651 5.89092 11.9169 6.14697 11.9169 6.47433C11.9169 6.82017 11.6651 7.07955 11.3302 7.07955H4.51531ZM4.51531 10.3455C4.17113 10.3455 3.91932 10.0877 3.91932 9.76038C3.91932 9.4238 4.17113 9.16439 4.51531 9.16439H7.80984C8.15402 9.16439 8.40413 9.4238 8.40413 9.76038C8.40413 10.0877 8.15402 10.3455 7.80984 10.3455H4.51531Z" fill="#DCA726"/>
</svg>
