<svg width="21" height="19" viewBox="0 0 21 19" fill="none" xmlns="http://www.w3.org/2000/svg">
<path d="M10.3208 8.90632C13.9 8.90632 17.3089 8.36534 20.634 6.97861V6.31189C20.634 4.3809 19.6427 3.40455 17.6968 3.40455H15.0972V2.54753C15.0972 0.822536 14.1645 0 12.4476 0H8.18161C6.54856 0 5.54429 0.822536 5.54429 2.54753V3.40455H2.93726C0.998797 3.40455 0 4.3809 0 6.31189V6.97861C3.32518 8.36534 6.73411 8.90632 10.3208 8.90632ZM7.19811 3.40455V2.54734C7.19811 1.89176 7.56997 1.52574 8.24054 1.52574H12.3919C13.0624 1.52574 13.4434 1.8934 13.4434 2.54734V3.40455H7.19811ZM2.93726 18.1157H17.6968C19.6427 18.1157 20.634 17.1319 20.634 15.2084V8.68989C17.8699 9.69378 15.3691 10.1782 12.8411 10.3598V11.084C12.8411 11.7702 12.4483 12.149 11.7398 12.149H8.89425C8.19329 12.149 7.79882 11.7702 7.79882 11.084V10.3598C5.26329 10.1782 2.76247 9.69378 0 8.68989V15.2084C0 17.1319 0.998797 18.1157 2.93726 18.1157Z" fill="#985277"/>
</svg>
