<svg width="23" height="20" viewBox="0 0 23 20" fill="none" xmlns="http://www.w3.org/2000/svg">
<path d="M1.86608 19.5626H15.6879C16.8554 19.5626 17.552 19.0095 17.552 18.0913C17.552 15.4187 14.1631 11.743 8.77176 11.743C3.39082 11.743 0 15.4187 0 18.0913C0 19.0095 0.698481 19.5626 1.86608 19.5626ZM8.78027 9.89856C11.0444 9.89856 12.9709 7.88535 12.9709 5.28276C12.9709 2.72817 11.0388 0.78418 8.78027 0.78418C6.52174 0.78418 4.58772 2.76411 4.59146 5.30167C4.59333 7.88535 6.50948 9.89856 8.78027 9.89856Z" fill="#B9A44C"/>
<path d="M18.9812 7.41468C19.5559 7.41468 19.918 7.07852 19.9441 6.65844C19.946 6.61876 19.9479 6.56682 19.9497 6.53565C19.9778 5.98842 20.3486 5.63419 21.0187 5.19187C22.045 4.52331 22.7056 3.92829 22.7056 2.71727C22.7056 0.991007 21.1496 0 19.307 0C17.5344 0 16.3269 0.818152 16.0005 1.79067C15.9392 1.96623 15.9043 2.14178 15.9043 2.32959C15.9043 2.8307 16.2922 3.13984 16.7135 3.13984C17.0996 3.13984 17.3513 2.97737 17.5532 2.7075L17.7179 2.48998C18.0683 1.92675 18.5684 1.6203 19.1867 1.6203C20.0291 1.6203 20.5915 2.11933 20.5915 2.82281C20.5915 3.48431 20.1553 3.80467 19.2796 4.4159C18.5372 4.93155 18.0035 5.46528 18.0035 6.40851C18.0035 6.44445 18.0035 6.48704 18.0035 6.52299C18.0035 7.1099 18.3504 7.41468 18.9812 7.41468ZM18.966 10.5944C19.6302 10.5944 20.1796 10.1091 20.1796 9.45427C20.1796 8.80126 19.6406 8.31406 18.966 8.31406C18.2915 8.31406 17.7469 8.80791 17.7469 9.45427C17.7469 10.1006 18.3 10.5944 18.966 10.5944Z" fill="#B9A44C"/>
</svg>
