<svg width="23" height="20" viewBox="0 0 23 20" fill="none" xmlns="http://www.w3.org/2000/svg">
<path d="M22.8156 14.0204C22.4224 11.5975 20.3074 9.73535 17.7614 9.73535C15.2155 9.73535 13.11 11.5975 12.7168 14.0204H22.8156ZM22.8156 15.7045H12.7168C13.1177 18.1352 15.2155 19.999 17.7614 19.999C20.3263 19.999 22.4241 18.1369 22.8156 15.7045Z" fill="#4D908E"/>
<path d="M11.3006 10.5111L14.1352 7.67813C15.9623 5.85883 15.9839 3.47044 14.2473 1.74156C12.5012 0.00320652 10.1273 0.0437748 8.31407 1.85701L5.48116 4.69166L11.3006 10.5111ZM10.058 11.7614L4.23077 5.93428L1.39441 8.77668C-0.43266 10.596 -0.457684 12.9861 1.28067 14.7133C3.03021 16.4499 5.40059 16.4189 7.21554 14.6056L10.058 11.7614Z" fill="#4D908E"/>
</svg>
