<svg width="27" height="18" viewBox="0 0 27 18" fill="none" xmlns="http://www.w3.org/2000/svg">
<path d="M12.3935 17.9979H24.5781C26.1893 17.9979 26.7473 17.5123 26.7473 16.6135C26.7473 14.0988 23.5568 10.6404 18.4858 10.6404C13.4228 10.6404 10.2324 14.0988 10.2324 16.6135C10.2324 17.5123 10.7903 17.9979 12.3935 17.9979ZM18.4938 8.90489C20.6224 8.90489 22.4289 7.01065 22.4289 4.56186C22.4289 2.15822 20.6109 0.329102 18.4938 0.329102C16.3687 0.329102 14.541 2.19204 14.5507 4.57965C14.5542 7.01065 16.3572 8.90489 18.4938 8.90489Z" fill="#0C4767"/>
<path d="M1.80292 17.9997H9.12822C8.08707 16.5044 9.23164 13.5454 11.4325 11.8262C10.3537 11.131 8.95424 10.6128 7.19078 10.6128C2.82314 10.6128 0 13.8359 0 16.4923C0 17.4529 0.485967 17.9997 1.80292 17.9997ZM7.19078 9.12793C9.05024 9.12793 10.6221 7.47005 10.6221 5.34557C10.6221 3.25293 9.03864 1.66016 7.19078 1.66016C5.35268 1.66016 3.75148 3.28499 3.76126 5.3616C3.76302 7.47005 5.33938 9.12793 7.19078 9.12793Z" fill="#0C4767"/>
</svg>
