<svg width="23" height="18" viewBox="0 0 23 18" fill="none" xmlns="http://www.w3.org/2000/svg">
<path d="M4.08128 5.3775C4.28249 4.44038 4.70285 3.19251 4.98396 2.68855C5.25275 2.19662 5.55868 1.98764 6.12985 1.91179C6.79884 1.82298 8.39384 1.76401 11.2491 1.76401C14.1121 1.76401 15.7088 1.80589 16.3718 1.91179C16.9396 1.99534 17.2379 2.19662 17.516 2.68855C17.8031 3.18481 18.2038 4.44038 18.4264 5.3775C18.5221 5.77725 18.3493 5.95768 17.9359 5.94059C16.4924 5.85254 14.6747 5.76034 11.2491 5.76034C7.83461 5.76034 6.01693 5.85254 4.57181 5.94059C4.15071 5.95768 3.98384 5.77725 4.08128 5.3775ZM4.42268 12.5417C3.53978 12.5417 2.86128 11.861 2.86128 10.9728C2.86128 10.077 3.53978 9.40216 4.42268 9.40216C5.30558 9.40216 5.9824 10.077 5.9824 10.9728C5.9824 11.861 5.30558 12.5417 4.42268 12.5417ZM8.73486 12.1459C8.06739 12.1459 7.60689 11.6827 7.60689 11.0113C7.60689 10.3459 8.06739 9.88267 8.73486 9.88267H13.7711C14.4326 9.88267 14.8931 10.3459 14.8931 11.0113C14.8931 11.6827 14.4326 12.1459 13.7711 12.1459H8.73486ZM18.0773 12.5417C17.1944 12.5417 16.5236 11.861 16.5236 10.9728C16.5236 10.077 17.1944 9.40216 18.0773 9.40216C18.9678 9.40216 19.6387 10.077 19.6387 10.9728C19.6387 11.861 18.9678 12.5417 18.0773 12.5417ZM11.2491 15.1543C14.4371 15.1543 18.619 14.9947 20.3879 14.7882C21.7378 14.6338 22.5 13.8654 22.5 12.581V10.9878C22.5 9.33703 22.1961 8.42416 21.3257 7.28404L20.4988 6.24045C20.1594 4.5506 19.5358 2.77793 19.2151 2.08153C18.6944 0.976739 17.6945 0.315628 16.4061 0.141572C15.7371 0.0503201 13.7319 0 11.2491 0C8.77571 0 6.77047 0.0580184 6.10148 0.141572C4.81149 0.300231 3.80559 0.976739 3.29247 2.08153C2.96413 2.77793 2.34817 4.5506 1.99948 6.24045L1.18024 7.28404C0.30388 8.42416 0 9.33703 0 10.9878V12.581C0 13.8654 0.769777 14.6355 2.11204 14.7882C3.88865 14.993 8.06293 15.1543 11.2491 15.1543ZM1.26479 17.8069H2.38195C3.09368 17.8069 3.64674 17.2523 3.64674 16.5424V14.1574L0 12.339V16.5424C0 17.2523 0.553069 17.8069 1.26479 17.8069ZM20.118 17.8069H21.2429C21.9545 17.8069 22.5 17.2523 22.5 16.5424V12.339L18.8609 14.1574V16.5424C18.8609 17.2523 19.4063 17.8069 20.118 17.8069Z" fill="#E87035"/>
</svg>
