<svg width="263" height="170" viewBox="0 0 263 170" fill="none" xmlns="http://www.w3.org/2000/svg">
<g clip-path="url(#clip0_1651_2808)">
<path d="M107.767 111.484V109.611H115.824V111.484C115.824 114.078 117.17 115.952 120.217 115.952C122.9 115.952 124.671 114.322 124.671 111.484C124.671 107.859 123.209 106.956 117.41 104.179C110.087 100.676 107.952 97.0575 107.952 91.1373C107.952 84.2531 112.345 79.6094 120.587 79.6094C128.823 79.6094 132.914 84.2599 132.914 91.2595V92.468H124.856V91.3206C124.856 88.6661 123.635 86.7312 120.642 86.7312C118.021 86.7312 116.49 88.4217 116.49 91.0151C116.49 94.2739 118.137 95.238 123.875 97.9604C131.383 101.525 133.209 105.266 133.209 111.301C133.209 118.423 128.693 123.073 120.333 123.073C111.974 123.073 107.767 118.423 107.767 111.484Z" fill="#E4BA22"/>
<path d="M152.817 114.804H143.236L141.829 122.469H133.71L142.557 80.2136H154.094L162.941 122.469H154.217L152.817 114.804ZM151.472 107.56L147.992 88.6661L144.574 107.56H151.472Z" fill="#E4BA22"/>
<path d="M165.411 80.2136H187.991V87.5798H173.956V97.6617H184.937V105.021H173.956V122.469H165.411V80.2136Z" fill="#E4BA22"/>
<path d="M190.435 80.2136H213.681V87.5798H198.973V97.3562H210.695V104.722H198.973V115.103H213.681V122.469H190.435V80.2136Z" fill="#E4BA22"/>
<path d="M104.322 126.027H116.957C125.502 126.027 129.592 129.469 129.592 136.774V138.403C129.592 142.871 127.821 145.647 124.04 147.093V147.277C127.945 148.302 129.654 151.438 129.654 157.481V162.43C129.654 164.786 129.777 166.476 130.628 168.282H121.905C121.418 167.135 121.171 166.531 121.171 162.369V156.877C121.171 152.83 119.771 151.384 115.804 151.384H112.873V168.289H104.322V126.027ZM115.975 144.018C119.517 144.018 121.04 142.572 121.04 139.306V137.677C121.04 134.717 119.757 133.393 116.888 133.393H112.859V144.018H115.975Z" fill="#E4BA22"/>
<path d="M133.065 126.027H156.318V133.393H141.61V143.169H153.325V150.536H141.61V160.923H156.318V168.282H133.065V126.027Z" fill="#E4BA22"/>
<path d="M158.83 126.027H181.41V133.393H167.374V143.475H178.362V150.841H167.374V168.282H158.83V126.027Z" fill="#E4BA22"/>
<path d="M183.956 156.693V126.027H192.501V157.175C192.501 160.074 193.963 161.52 196.832 161.52C199.7 161.52 201.162 160.074 201.162 157.175V126.027H209.398V156.693C209.398 164.358 205.006 168.887 196.646 168.887C188.294 168.887 183.956 164.358 183.956 156.693Z" fill="#E4BA22"/>
<path d="M211.876 156.815V137.616C211.876 129.951 216.577 125.422 224.566 125.422C232.562 125.422 237.256 129.951 237.256 137.616V140.033H229.199V137.317C229.199 134.479 227.675 132.789 224.806 132.789C221.937 132.789 220.414 134.479 220.414 137.317V156.999C220.414 159.837 221.937 161.527 224.806 161.527C227.675 161.527 229.199 159.837 229.199 156.999V151.805H224.985V144.14H237.263V156.815C237.263 164.419 232.562 168.887 224.573 168.887C216.577 168.887 211.876 164.419 211.876 156.815Z" fill="#E4BA22"/>
<path d="M239.727 126.027H262.98V133.393H248.272V143.169H259.987V150.536H248.272V160.923H262.98V168.282H239.727V126.027Z" fill="#E4BA22"/>
<path d="M-0.00684372 57.5653C-0.0892028 53.9263 0.768704 50.1855 1.70211 46.7706C3.2532 41.0813 6.17695 35.6771 9.42327 30.6803C12.0107 26.7019 14.9345 22.9203 17.9268 19.2135C20.8369 15.6152 24.1244 12.275 27.8443 9.40318C30.5415 7.31891 33.4653 5.47905 36.588 3.99902C45.675 -0.318868 56.7523 -1.47302 66.1206 2.26779C71.8995 4.5761 76.7587 8.60206 80.6227 13.239C87.2938 21.257 90.5881 31.0469 93.8139 40.6332C97.1288 50.4842 99.6682 60.6204 100.526 70.9331C100.849 74.8097 101.02 78.7406 100.945 82.6172C100.835 88.0757 100.21 93.4663 98.9682 98.8026C98.8515 99.2914 98.5564 99.9092 98.021 99.8413C97.7191 99.8006 97.52 99.5426 97.3622 99.3049C94.9669 95.6931 93.7178 90.2822 93.0864 86.1612C91.899 78.4759 91.7 71.999 90.9725 64.2662C90.9176 63.7095 90.8627 63.1392 90.5813 62.6504C90.2999 62.1616 89.744 61.761 89.1537 61.8357C88.6184 61.8968 88.1929 62.3313 88.0076 62.8065C87.8223 63.2818 87.836 63.8045 87.8428 64.3137C88.0899 74.8165 87.335 85.3261 90.0459 95.6388C90.5607 97.6009 91.2196 99.5358 92.0775 101.396C93.4021 104.275 95.1865 106.936 97.1288 109.475C98.8927 111.777 101.439 113.949 102.311 116.726C102.578 117.575 102.64 118.573 102.064 119.272C99.0643 122.884 91.2676 115.069 89.5175 113.1C81.9885 104.614 78.5157 93.5953 76.944 82.8345C75.489 72.8748 75.2007 62.8065 73.6359 52.8604C73.3408 50.9799 72.9976 49.0993 72.5996 47.2323C71.0004 39.8185 68.2277 32.1739 62.4419 26.6747C56.1964 20.7342 47.2947 22.6284 41.1933 27.7135C37.8166 30.531 35.236 34.0817 33.026 37.775C32.6074 38.4743 32.1956 39.1871 31.5641 39.7303C30.9396 40.2734 30.0474 40.6128 29.2238 40.4092C27.707 40.0222 27.3226 38.1552 27.5285 36.6955C28.3933 30.5378 32.8407 26.0094 37.2263 21.8137C37.9744 21.1009 38.599 19.8924 37.2606 19.4647C35.936 19.0438 34.0486 20.1029 32.9025 20.6935C27.9541 23.2394 23.9528 27.537 21.784 32.622C20.4319 35.7993 19.8074 39.2686 19.9172 42.7039C19.9652 44.2247 20.1711 50.7219 22.738 50.396C23.1086 50.3485 23.4037 50.0973 23.6577 49.8461C24.9617 48.5154 25.6343 46.7163 27.0207 45.4603C27.3158 45.1955 27.6864 44.9443 28.0913 44.985C28.6267 45.0462 28.9286 45.5825 29.1002 46.0577C31.5024 52.779 27.1854 59.9551 24.2273 65.8549C20.8986 72.4946 19.1485 79.8269 19.1828 87.166C19.1897 89.0669 19.3132 90.9679 19.1348 92.8553C19.0867 93.378 18.9769 93.9551 18.5308 94.2742C16.2179 95.9104 12.7519 86.5549 12.3127 85.2446C10.9057 81.0829 9.96547 76.7107 7.59078 72.9088C5.6828 69.8469 2.90318 67.267 1.39326 64.015C0.446131 61.9715 0.0411991 59.7922 -0.00684372 57.5653ZM19.3681 57.8437C18.6063 57.5993 17.9406 57.9998 17.5288 58.5837C17.2748 58.9435 17.1238 59.3509 17.0003 59.765C16.6777 60.8513 16.5748 62.019 16.8699 63.112C16.9523 63.4176 17.0689 63.7231 17.268 63.9811C17.467 64.239 17.7553 64.4495 18.0847 64.5038C18.7642 64.626 19.2034 64.049 19.5397 63.5941C19.8692 63.1392 20.1986 62.6911 20.528 62.2362C20.8986 61.7271 21.2761 61.2043 21.4683 60.6136C21.6605 60.023 21.6399 59.3373 21.2555 58.8349C20.8163 58.2714 20.0407 58.0609 19.3681 57.8437Z" fill="#1B3284"/>
<path d="M94.3149 147.351C93.91 150.434 93.5943 153.523 93.5119 156.632C93.4364 159.504 93.9649 162.444 93.2923 165.261C93.0384 166.327 92.5373 167.434 91.5628 167.95C90.897 168.303 90.1078 168.33 89.3528 168.35C81.4944 168.534 73.6291 168.649 65.7638 168.69C62.4763 168.71 59.1888 168.73 55.9013 168.717C52.0304 168.717 48.1733 168.73 44.3024 168.88C41.9346 168.975 39.5667 169.104 37.1989 169.267C33.4927 169.518 29.7866 169.912 26.0736 169.993C24.0969 170.034 21.2556 170.238 19.5878 168.941C16.6229 166.599 17.5974 161.962 17.7141 158.73C17.7827 156.836 17.6592 154.935 17.2337 153.081C16.2248 148.662 15.01 144.371 13.3354 140.141C12.0176 136.801 10.494 133.386 10.6518 129.802C10.8646 125.015 13.6305 121.879 14.8041 117.235C15.01 116.42 15.1061 115.755 15.0786 115.259C13.5756 83.6286 47.0683 93.3438 43.4102 110.337C43.3964 110.405 43.3758 110.473 43.3552 110.541C42.9023 111.776 41.7287 111.138 41.4267 109.909C40.1776 104.845 34.7144 103.976 34.1585 110.425C33.9457 112.903 36.1488 114.893 35.1262 116.461C33.6026 118.81 33.4447 119.815 32.1201 119.91C30.37 120.032 28.2286 118.328 27.6796 116.76C26.9109 114.58 30.521 109.516 27.3021 106.141C26.4442 105.238 24.8244 105.225 23.04 105.782C19.1417 107.01 18.6475 109.936 18.6063 118.647C18.5857 122.612 16.6709 123.807 15.8336 126.088C14.8247 128.837 14.358 131.254 15.1404 134.099C15.7924 136.482 17.1445 138.6 18.3181 140.78C20.6104 145.043 20.7614 149.578 20.933 154.31C21.0222 156.809 20.8094 159.3 21.8801 161.643C22.4223 162.837 23.191 163.917 24.0832 164.888C27.81 168.921 37.3156 166.205 41.6051 165.329C43.8563 164.867 48.1527 164.026 49.3126 161.894C49.9028 160.801 50.1361 159.552 50.2597 158.323C50.5754 155.01 50.0263 151.567 49.9852 148.234C49.944 144.717 50.1018 141.194 50.6989 137.724C50.9529 136.272 51.2823 134.805 51.2 133.332C51.1382 132.32 50.445 131.519 49.5116 132.334C47.8919 133.739 46.9928 135.966 46.2378 137.915C45.4623 139.938 45.0711 142.056 44.8446 144.201C44.4122 148.336 45.2426 152.504 45.0779 156.659C45.0573 157.101 45.0093 157.589 44.7004 157.902C44.0484 158.56 42.9297 157.983 42.2297 157.359C39.5461 154.955 37.3019 151.927 36.5126 148.431C35.8468 145.471 36.2655 142.389 36.4645 139.361C36.8626 133.366 36.3959 127.256 37.8715 121.424C38.2833 119.808 38.8529 118.192 39.8893 116.875C40.9257 115.558 42.4836 114.567 44.1651 114.533C46.1555 114.485 47.9468 115.741 49.2851 117.194C51.1862 119.244 52.4971 121.75 53.7874 124.228C55.6473 127.806 57.5073 131.397 58.8319 135.199C60.1496 139.001 60.9252 143.047 60.534 147.053C60.184 150.61 58.9623 154.018 58.8593 157.61C58.8456 158.017 58.8525 158.445 59.0035 158.825C59.2711 159.49 59.9231 159.647 60.5752 159.701C65.0431 159.701 69.4356 161.412 73.9173 160.706C78.4677 159.986 82.1944 156.564 84.4799 152.599C86.9644 148.288 88.1037 143.23 89.4489 138.478C90.849 133.536 92.2285 128.573 94.2188 123.82C94.3767 123.44 94.5483 123.053 94.8571 122.782C95.166 122.51 95.6601 122.401 95.9964 122.639C96.2641 122.829 96.3671 123.175 96.422 123.494C97.4034 128.742 96.1406 134.52 95.3787 139.727C95.0424 142.273 94.6512 144.806 94.3149 147.351Z" fill="#1B3284"/>
<path d="M38.6539 109.909C39.5049 109.909 40.0608 110.819 39.649 111.552C38.9764 112.761 36.8626 113.806 36.3615 112.299C35.9497 111.077 37.3773 109.909 38.6539 109.909Z" fill="#1B3284"/>
<path d="M23.74 110.038C22.3674 109.448 21.1251 111.091 22.0928 112.218C22.8821 113.141 24.2754 113.684 25.0852 112.564C25.8265 111.708 24.893 110.541 23.74 110.038Z" fill="#1B3284"/>
</g>
<defs>
<clipPath id="clip0_1651_2808">
<rect width="263" height="170" fill="white"/>
</clipPath>
</defs>
</svg>
