<svg width="88" height="88" viewBox="0 0 88 88" fill="none" xmlns="http://www.w3.org/2000/svg">
<g filter="url(#filter0_d_1838_5741)">
<circle cx="44" cy="44" r="40" fill="white"/>
<path d="M67.4986 43.061C67.479 43.1675 67.4495 43.2741 67.4102 43.3806C66.6837 45.3566 64.8183 44.3299 64.3372 42.3733C62.3441 34.3047 53.6258 32.9293 52.7323 43.1966C52.3887 47.1388 55.9035 50.3062 54.2836 52.8053C51.8585 56.5441 51.6033 58.152 49.4826 58.2973C46.6845 58.491 43.2776 55.7789 42.394 53.2896C41.1668 49.8219 46.9299 41.7533 41.7853 36.3872C40.4108 34.9537 37.8286 34.9246 34.9814 35.8157C28.7568 37.7723 27.9714 42.4314 27.9027 56.302C27.8732 62.6173 26.0274 64.0799 24.6824 67.7219C23.7104 70.3663 23.0133 73.1559 22.8955 75.9455C22.8464 76.9819 21.7861 77.9021 20.9515 77.2822C18.5658 75.5096 16.4843 73.5046 15.6989 72.6522C15.4633 72.4003 15.3945 71.9935 15.4436 71.6545C16.4647 65.3294 20.1563 60.6414 21.8253 54.0548C22.1591 52.7568 22.3064 51.6913 22.2671 50.9068C19.8617 0.529053 73.3305 16.0075 67.4986 43.061Z" fill="#1B3284"/>
<path d="M79.6865 60.9762C75.8869 68.9382 69.6329 75.6798 61.7098 79.6801C60.1782 80.455 58.1753 79.2346 58.028 77.5395C57.4782 71.2048 55.2496 67.3593 57.1739 59.7945C57.8317 57.2179 58.7448 54.6511 60.3942 52.5589C62.0436 50.4667 64.5374 48.8878 67.2275 48.82C70.3987 48.7522 73.2557 50.7476 75.4059 53.0529C77.016 54.7867 78.3611 56.7239 79.5785 58.7484C79.9909 59.4167 80.0301 60.2594 79.6865 60.9762Z" fill="#1B3284"/>
<path d="M59.05 41.5669C60.4147 41.5766 61.2885 43.0101 60.6307 44.1918C59.5508 46.1194 56.1832 47.7854 55.3781 45.3832C54.7301 43.4266 57.0177 41.5669 59.05 41.5669Z" fill="#1B3284"/>
<path d="M35.2418 41.7705C33.0524 40.8212 31.0691 43.4462 32.6106 45.2478C33.8673 46.7104 36.096 47.5822 37.3919 45.7999C38.5799 44.4342 37.0876 42.5647 35.2418 41.7705Z" fill="#1B3284"/>
</g>
<defs>
<filter id="filter0_d_1838_5741" x="0" y="0" width="88" height="88" filterUnits="userSpaceOnUse" color-interpolation-filters="sRGB">
<feFlood flood-opacity="0" result="BackgroundImageFix"/>
<feColorMatrix in="SourceAlpha" type="matrix" values="0 0 0 0 0 0 0 0 0 0 0 0 0 0 0 0 0 0 127 0" result="hardAlpha"/>
<feOffset/>
<feGaussianBlur stdDeviation="2"/>
<feColorMatrix type="matrix" values="0 0 0 0 0 0 0 0 0 0 0 0 0 0 0 0 0 0 0.05 0"/>
<feBlend mode="normal" in2="BackgroundImageFix" result="effect1_dropShadow_1838_5741"/>
<feBlend mode="normal" in="SourceGraphic" in2="effect1_dropShadow_1838_5741" result="shape"/>
</filter>
</defs>
</svg>
