<svg width="20" height="20" viewBox="0 0 20 20" fill="none" xmlns="http://www.w3.org/2000/svg">
<circle cx="10" cy="10" r="10" fill="#2C53DA" fill-opacity="0.8"/>
<path fill-rule="evenodd" clip-rule="evenodd" d="M9.86927 14.0493L10.0002 13.8636L9.86927 14.0493ZM10.1311 14.0493L10.132 14.0489L10.1343 14.0473L10.1411 14.042L10.1679 14.0227C10.1906 14.0059 10.2238 13.9814 10.2656 13.9491C10.3493 13.885 10.4679 13.7907 10.6095 13.6695C10.9812 13.3518 11.3287 13.007 11.6493 12.6377C12.4011 11.7682 13.182 10.527 13.182 9.10818C13.182 8.26045 12.847 7.44682 12.2506 6.84682C11.9559 6.54986 11.6053 6.31413 11.2191 6.1532C10.8328 5.99226 10.4186 5.9093 10.0002 5.90909C9.58178 5.90927 9.16755 5.9922 8.78133 6.15309C8.3951 6.31399 8.04451 6.54967 7.74972 6.84659C7.15277 7.44796 6.81796 8.26106 6.81836 9.10841C6.81836 10.527 7.59927 11.7682 8.35109 12.6377C8.67163 13.007 9.01918 13.3518 9.39086 13.6695C9.53268 13.7907 9.65109 13.885 9.73472 13.9491C9.77575 13.9807 9.81719 14.0118 9.85904 14.0423L9.86631 14.0473L9.86836 14.0489L9.86927 14.0493C9.94768 14.1045 10.0527 14.1045 10.1311 14.0493ZM10.0002 13.8636L10.1311 14.0493L10.0002 13.8636ZM11.1365 9.09091C11.1365 9.39229 11.0168 9.68133 10.8037 9.89444C10.5906 10.1075 10.3016 10.2273 10.0002 10.2273C9.6988 10.2273 9.40976 10.1075 9.19665 9.89444C8.98354 9.68133 8.86381 9.39229 8.86381 9.09091C8.86381 8.78952 8.98354 8.50049 9.19665 8.28738C9.40976 8.07427 9.6988 7.95454 10.0002 7.95454C10.3016 7.95454 10.5906 8.07427 10.8037 8.28738C11.0168 8.50049 11.1365 8.78952 11.1365 9.09091Z" fill="white"/>
</svg>
