<svg width="12" height="12" viewBox="0 0 12 12" fill="none" xmlns="http://www.w3.org/2000/svg">
<path d="M9.83438 3.25898C9.8099 3.18376 9.76226 3.1182 9.69828 3.07168C9.63429 3.02516 9.55723 3.00007 9.47812 3H8.625V1.6875C8.625 1.48008 8.45742 1.3125 8.25 1.3125H3.75C3.54258 1.3125 3.375 1.48008 3.375 1.6875V3H2.52187C2.44272 2.99989 2.36558 3.02491 2.30156 3.07146C2.23754 3.118 2.18994 3.18366 2.16563 3.25898L1.3125 5.88281V10.3125C1.3125 10.5199 1.48008 10.6875 1.6875 10.6875H10.3125C10.5199 10.6875 10.6875 10.5199 10.6875 10.3125V5.88281L9.83438 3.25898ZM7.73438 7.35938C7.73438 7.41094 7.69219 7.45312 7.64062 7.45312H6.375V8.71875C6.375 8.77031 6.33281 8.8125 6.28125 8.8125H5.71875C5.66719 8.8125 5.625 8.77031 5.625 8.71875V7.45312H4.35938C4.30781 7.45312 4.26562 7.41094 4.26562 7.35938V6.79688C4.26562 6.74531 4.30781 6.70312 4.35938 6.70312H5.625V5.4375C5.625 5.38594 5.66719 5.34375 5.71875 5.34375H6.28125C6.33281 5.34375 6.375 5.38594 6.375 5.4375V6.70312H7.64062C7.69219 6.70312 7.73438 6.74531 7.73438 6.79688V7.35938ZM7.78125 3H4.21875V2.15625H7.78125V3Z" fill="white"/>
</svg>
