<svg width="12" height="12" viewBox="0 0 12 12" fill="none" xmlns="http://www.w3.org/2000/svg">
<path d="M11 6.33334C10.9561 6.33359 10.9127 6.32518 10.872 6.30859C10.8314 6.29201 10.7945 6.26756 10.7633 6.23667L6.00001 1.47L1.23668 6.23667C1.17291 6.29128 1.09088 6.31981 1.00699 6.31657C0.923099 6.31333 0.84352 6.27856 0.784155 6.21919C0.72479 6.15983 0.690012 6.08025 0.686772 5.99635C0.683532 5.91246 0.712067 5.83044 0.766676 5.76667L5.76668 0.76667C5.82913 0.704586 5.91361 0.669739 6.00168 0.669739C6.08974 0.669739 6.17422 0.704586 6.23668 0.76667L11.2367 5.76667C11.2825 5.81346 11.3136 5.87274 11.326 5.93709C11.3383 6.00144 11.3315 6.068 11.3062 6.12847C11.281 6.18893 11.2385 6.24061 11.184 6.27705C11.1295 6.31349 11.0655 6.33307 11 6.33334Z" fill="white"/>
<path d="M6 2.59668L2 6.61001V10.6667C2 10.8435 2.07024 11.0131 2.19526 11.1381C2.32029 11.2631 2.48986 11.3333 2.66667 11.3333H5V8.00001H7V11.3333H9.33333C9.51014 11.3333 9.67971 11.2631 9.80474 11.1381C9.92976 11.0131 10 10.8435 10 10.6667V6.58668L6 2.59668Z" fill="white"/>
</svg>
