<svg width="12" height="12" viewBox="0 0 12 12" fill="none" xmlns="http://www.w3.org/2000/svg">
<path fill-rule="evenodd" clip-rule="evenodd" d="M10.5 3.5C10.5 4.03043 10.2893 4.53914 9.91421 4.91421C9.53914 5.28929 9.03043 5.5 8.5 5.5C7.96957 5.5 7.46086 5.28929 7.08579 4.91421C6.71071 4.53914 6.5 4.03043 6.5 3.5C6.5 2.96957 6.71071 2.46086 7.08579 2.08579C7.46086 1.71071 7.96957 1.5 8.5 1.5C9.03043 1.5 9.53914 1.71071 9.91421 2.08579C10.2893 2.46086 10.5 2.96957 10.5 3.5V3.5ZM9.5705 3.74625C9.55561 3.81081 9.51571 3.86682 9.45955 3.90198C9.40339 3.93713 9.33558 3.94856 9.271 3.93375L7.617 3.55375C7.55235 3.5389 7.49625 3.49897 7.46104 3.44276C7.42583 3.38655 7.4144 3.31865 7.42925 3.254C7.4441 3.18935 7.48403 3.13325 7.54024 3.09804C7.59645 3.06283 7.66435 3.0514 7.729 3.06625L9.383 3.4465C9.41499 3.45387 9.44522 3.46747 9.47196 3.48652C9.4987 3.50557 9.52142 3.52971 9.53883 3.55754C9.55624 3.58538 9.568 3.61637 9.57343 3.64875C9.57887 3.68112 9.57787 3.71426 9.5705 3.74625V3.74625Z" fill="white"/>
<path d="M4.19476 2.31125C4.03301 1.92825 3.49151 1.88975 3.27426 2.2455L1.57326 5.02875C1.37701 5.34975 1.59626 5.75975 1.97901 5.787L4.94551 5.9985C5.32801 6.026 5.60651 5.6515 5.46051 5.306L4.19476 2.31125Z" fill="white"/>
<path fill-rule="evenodd" clip-rule="evenodd" d="M8.84605 9.09001C9.20665 8.92189 9.48569 8.61742 9.62179 8.24356C9.7579 7.86971 9.73992 7.4571 9.5718 7.09651C9.48856 6.91796 9.37097 6.75755 9.22573 6.62445C9.0805 6.49135 8.91047 6.38816 8.72536 6.32076C8.35151 6.18466 7.9389 6.20264 7.5783 6.37076L4.8593 7.63876C4.68077 7.722 4.52038 7.83959 4.38729 7.98482C4.25421 8.13004 4.15103 8.30006 4.08365 8.48516C4.01627 8.67026 3.98601 8.86682 3.99459 9.06362C4.00317 9.26042 4.05044 9.4536 4.13368 9.63213C4.21692 9.81066 4.33451 9.97105 4.47974 10.1041C4.62496 10.2372 4.79498 10.3404 4.98008 10.4078C5.16518 10.4752 5.36175 10.5054 5.55854 10.4968C5.75534 10.4883 5.94852 10.441 6.12705 10.3578L8.84605 9.08976V9.09001ZM7.48555 9.17251L8.6348 8.63676C8.87248 8.52302 9.05567 8.32007 9.14455 8.07202C9.23343 7.82397 9.22082 7.55087 9.10945 7.31207C8.99809 7.07326 8.79697 6.88807 8.54982 6.79672C8.30267 6.70538 8.02945 6.71527 7.78955 6.82426L6.6403 7.36001L7.4853 9.17251H7.48555Z" fill="white"/>
</svg>
