<svg width="12" height="12" viewBox="0 0 12 12" fill="none" xmlns="http://www.w3.org/2000/svg">
<path d="M8.5 2.5H1.5C1.23478 2.5 0.98043 2.60536 0.792893 2.79289C0.605357 2.98043 0.5 3.23478 0.5 3.5V8H1.5C1.5 8.825 2.17 9.5 3 9.5C3.83 9.5 4.5 8.825 4.5 8H7.25C7.25 8.825 7.92 9.5 8.75 9.5C9.58 9.5 10.25 8.825 10.25 8H11.5V5.5L8.5 2.5ZM1.5 5.5V3.5H3.5V5.5H1.5ZM3 8.75C2.585 8.75 2.25 8.415 2.25 8C2.25 7.585 2.585 7.25 3 7.25C3.415 7.25 3.75 7.585 3.75 8C3.75 8.415 3.415 8.75 3 8.75ZM6.5 5.5H4.5V3.5H6.5V5.5ZM8.75 8.75C8.335 8.75 8 8.415 8 8C8 7.585 8.335 7.25 8.75 7.25C9.165 7.25 9.5 7.585 9.5 8C9.5 8.415 9.165 8.75 8.75 8.75ZM7.5 5.5V3.5H8L10 5.5H7.5Z" fill="white"/>
</svg>
