<svg width="12" height="12" viewBox="0 0 12 12" fill="none" xmlns="http://www.w3.org/2000/svg">
<path d="M8 3.54C8 4.425 7.58 5.165 7 5.45V10.5H6V5.45C5.42 5.165 5 4.425 5 3.54C5.005 2.415 5.675 1.5 6.5 1.5C7.33 1.5 8 2.415 8 3.54ZM8.5 1.5V10.5H9.5V6.5H10.5V3.5C10.5 2.62 9.88 1.5 8.5 1.5ZM4.14 1.5C3.94 1.5 3.78 1.66 3.78 1.86V3.5H3.36V1.86C3.36 1.66 3.2 1.5 3 1.5C2.8 1.5 2.64 1.66 2.64 1.86V3.5H2.22V1.86C2.22 1.66 2.06 1.5 1.86 1.5C1.66 1.5 1.5 1.66 1.5 1.86V4.5C1.5 5.05 1.95 5.5 2.5 5.5V10.5H3.5V5.5C4.05 5.5 4.5 5.05 4.5 4.5V1.86C4.5 1.66 4.34 1.5 4.14 1.5Z" fill="white"/>
</svg>
