<svg width="12" height="12" viewBox="0 0 12 12" fill="none" xmlns="http://www.w3.org/2000/svg">
<path d="M9.78 5.68L6.5 4.22V3.5C6.5 3.225 6.275 3 6 3C5.725 3 5.5 2.775 5.5 2.5C5.5 2.225 5.725 2 6 2C6.275 2 6.5 2.225 6.5 2.5H7.5C7.5 1.58 6.67 0.849998 5.72 1.025C5.13 1.135 4.645 1.61 4.53 2.2C4.38 2.98 4.83 3.67 5.5 3.91V4.225L2.22 5.685C1.78 5.875 1.5 6.31 1.5 6.785V6.79C1.5 7.46 2.04 8 2.71 8H3.5V11H8.5V8H9.29C9.96 8 10.5 7.46 10.5 6.79V6.785C10.5 6.31 10.22 5.875 9.78 5.68ZM9.29 7H8.5V6.5H3.5V7H2.71C2.595 7 2.5 6.905 2.5 6.785C2.5 6.7 2.55 6.625 2.625 6.595L6 5.095L9.375 6.595C9.41936 6.61457 9.45564 6.64879 9.47778 6.69192C9.49992 6.73506 9.50657 6.78449 9.49661 6.83194C9.48665 6.87939 9.46069 6.92198 9.42308 6.95257C9.38547 6.98317 9.33848 6.99991 9.29 7Z" fill="white"/>
</svg>
