<svg width="12" height="12" viewBox="0 0 12 12" fill="none" xmlns="http://www.w3.org/2000/svg">
<path d="M6 2H2.5C1.67 2 1 2.67 1 3.5V7.5C1 8.33 1.67 9 2.5 9L2 9.5V10H2.5L3.5 8.985L4.5 9V6.5H2V2.99L6.5 3V4H7.5V3.5C7.5 2.67 6.83 2 6 2ZM2.5 7C2.775 7 3 7.225 3 7.5C3 7.775 2.775 8 2.5 8C2.225 8 2 7.775 2 7.5C2 7.225 2.225 7 2.5 7ZM10.285 4.83C10.215 4.63 10.025 4.5 9.8 4.5H6.205C5.975 4.5 5.79 4.63 5.715 4.83L5 6.885L5.005 9.64C5.005 9.83 5.16 10 5.35 10H5.66C5.85 10 6 9.81 6 9.62V9H10V9.62C10 9.81 10.155 10 10.345 10H10.65C10.84 10 10.995 9.83 10.995 9.64L11 8.955V6.885L10.285 4.83ZM6.205 5H9.8L10.315 6.5H5.69L6.205 5ZM6 8C5.725 8 5.5 7.775 5.5 7.5C5.5 7.225 5.725 7 6 7C6.275 7 6.5 7.225 6.5 7.5C6.5 7.775 6.275 8 6 8ZM10 8C9.725 8 9.5 7.775 9.5 7.5C9.5 7.225 9.725 7 10 7C10.275 7 10.5 7.225 10.5 7.5C10.5 7.775 10.275 8 10 8Z" fill="white"/>
</svg>
