<svg width="30" height="35" viewBox="0 0 30 35" fill="none" xmlns="http://www.w3.org/2000/svg">
<path fill-rule="evenodd" clip-rule="evenodd" d="M24.2286 27.1807C27.7416 24.3991 30 20.0659 30 15.1984C30 6.80454 23.2843 0 15 0C6.71573 0 0 6.80454 0 15.1984C0 20.1767 2.36235 24.596 6.0132 27.3682L13.7134 33.8699C14.4569 34.4977 15.5444 34.4992 16.2897 33.8735L24.0097 27.3923C24.0897 27.3251 24.1626 27.2544 24.2286 27.1807ZM19.4997 15.1984C19.4997 17.7165 17.485 19.7579 14.9997 19.7579C12.5144 19.7579 10.4997 17.7165 10.4997 15.1984C10.4997 12.6802 12.5144 10.6389 14.9997 10.6389C17.485 10.6389 19.4997 12.6802 19.4997 15.1984Z" fill="#4742DD"/>
</svg>
