<svg width="20" height="20" viewBox="0 0 20 20" fill="none" xmlns="http://www.w3.org/2000/svg">
<path fill-rule="evenodd" clip-rule="evenodd" d="M17.2019 0.0174051C17.1373 0.035517 17.0771 0.0670712 17.0255 0.110005L2.17191 12.4746C2.09529 12.5384 2.04057 12.6246 2.01543 12.721C1.99028 12.8175 1.99598 12.9194 2.03173 13.0125C2.06747 13.1055 2.13146 13.1851 2.21471 13.2399C2.29796 13.2947 2.3963 13.3221 2.49591 13.3182L10.0873 13.0226L13.6273 19.745C13.6738 19.8332 13.7467 19.9046 13.8358 19.9492C13.9249 19.9938 14.0257 20.0094 14.1241 19.9938C14.2226 19.9782 14.3136 19.9322 14.3846 19.8622C14.4555 19.7922 14.5028 19.7018 14.5197 19.6036L17.8009 0.557605C17.8145 0.478297 17.8078 0.396849 17.7814 0.320833C17.755 0.244817 17.7099 0.176701 17.6501 0.122818C17.5904 0.0689349 17.518 0.031034 17.4396 0.0126391C17.3613 -0.00575582 17.2796 -0.00404754 17.2021 0.0176051L17.2019 0.0174051ZM16.6403 1.67281L13.8173 18.0578L10.7917 12.3114C10.7497 12.2318 10.6861 12.1656 10.6081 12.1206C10.5302 12.0756 10.4411 12.0535 10.3511 12.057L3.86191 12.31L16.6403 1.67281Z" fill="white"/>
</svg>
