<svg width="36" height="36" viewBox="0 0 36 36" fill="none" xmlns="http://www.w3.org/2000/svg">
<circle cx="18" cy="18" r="18" fill="#5A995C"/>
<path fill-rule="evenodd" clip-rule="evenodd" d="M22.5125 18.985C22.2642 18.8609 21.0467 18.2625 20.82 18.1792C20.5933 18.0967 20.4283 18.0559 20.2625 18.3042C20.0975 18.5509 19.6233 19.1092 19.4792 19.2742C19.3342 19.44 19.19 19.46 18.9425 19.3367C18.695 19.2117 17.8967 18.9509 16.9508 18.1075C16.215 17.4509 15.7175 16.64 15.5733 16.3917C15.4292 16.1442 15.5575 16.01 15.6817 15.8867C15.7933 15.7759 15.9292 15.5975 16.0533 15.4534C16.1775 15.3084 16.2183 15.205 16.3008 15.0392C16.3842 14.8742 16.3425 14.73 16.28 14.6059C16.2183 14.4817 15.7233 13.2625 15.5167 12.7667C15.3158 12.2842 15.1117 12.35 14.96 12.3417C14.815 12.335 14.65 12.3334 14.485 12.3334C14.32 12.3334 14.0517 12.395 13.825 12.6434C13.5975 12.8909 12.9583 13.49 12.9583 14.7092C12.9583 15.9275 13.845 17.105 13.9692 17.2709C14.0933 17.4359 15.715 19.9375 18.1992 21.01C18.7908 21.265 19.2517 21.4175 19.6108 21.5309C20.2042 21.72 20.7442 21.6934 21.1708 21.6292C21.6458 21.5584 22.6358 21.03 22.8425 20.4517C23.0483 19.8734 23.0483 19.3775 22.9867 19.2742C22.925 19.1709 22.76 19.1092 22.5117 18.985H22.5125ZM17.9942 25.1542H17.9908C16.5154 25.1545 15.067 24.7578 13.7975 24.0059L13.4975 23.8275L10.3792 24.6459L11.2117 21.6059L11.0158 21.2942C10.1909 19.9812 9.75441 18.4615 9.75667 16.9109C9.75833 12.3692 13.4533 8.6742 17.9975 8.6742C20.1975 8.6742 22.2658 9.53253 23.8208 11.0892C24.5878 11.853 25.1957 12.7613 25.6094 13.7616C26.0231 14.7619 26.2343 15.8343 26.2308 16.9167C26.2292 21.4584 22.5342 25.1542 17.9942 25.1542ZM25.0042 9.9067C24.086 8.98247 22.9935 8.24965 21.7901 7.7507C20.5866 7.25175 19.2961 6.9966 17.9933 7.00003C12.5317 7.00003 8.085 11.4459 8.08333 16.91C8.0808 18.649 8.53698 20.3579 9.40583 21.8642L8 27L13.2533 25.6217C14.7066 26.4135 16.3351 26.8283 17.99 26.8284H17.9942C23.4558 26.8284 27.9025 22.3825 27.9042 16.9175C27.9082 15.6153 27.654 14.3251 27.1562 13.1217C26.6584 11.9183 25.927 10.8256 25.0042 9.9067Z" fill="white"/>
</svg>
