<svg width="36" height="36" viewBox="0 0 36 36" fill="none" xmlns="http://www.w3.org/2000/svg">
<circle cx="18" cy="18" r="18" fill="#5A995C"/>
<path d="M25.2347 11.1832L25.2079 11.1664L21.8254 9.5L18.1745 14.3679L19.8542 16.6076C19.8039 17.4522 19.4457 18.2492 18.8474 18.8475C18.2491 19.4458 17.4522 19.804 16.6075 19.8542L14.3678 18.1745L9.5 21.8254L11.1526 25.1796L11.1665 25.2079L11.1832 25.2347C11.2714 25.3768 11.3945 25.4939 11.5408 25.575C11.6871 25.6561 11.8517 25.6983 12.0189 25.6978H12.8917C14.5734 25.6978 16.2387 25.3666 17.7924 24.723C19.3461 24.0794 20.7579 23.1361 21.947 21.947C23.1362 20.7578 24.0795 19.3461 24.723 17.7924C25.3666 16.2387 25.6978 14.5734 25.6978 12.8917V12.0188C25.6984 11.8516 25.6561 11.687 25.575 11.5407C25.494 11.3944 25.3768 11.2714 25.2347 11.1832ZM24.4478 12.8917C24.4478 19.2638 19.2638 24.4478 12.8917 24.4478H12.1855L11.0798 22.2032L14.3681 19.737L16.1988 21.11H16.4071C17.654 21.1086 18.8495 20.6126 19.7312 19.7309C20.6129 18.8492 21.1089 17.6538 21.1102 16.4068V16.1985L19.7372 14.3678L22.2032 11.0797L24.4478 12.1856V12.8917Z" fill="white"/>
</svg>
