<svg width="20" height="20" viewBox="0 0 20 20" fill="none" xmlns="http://www.w3.org/2000/svg">
<path d="M18.2347 4.18317L18.2079 4.16645L14.8254 2.5L11.1745 7.36785L12.8542 9.60758C12.8039 10.4522 12.4457 11.2492 11.8474 11.8475C11.2491 12.4458 10.4522 12.804 9.60751 12.8542L7.36782 11.1745L2.5 14.8254L4.15258 18.1796L4.16649 18.2079L4.18324 18.2347C4.27143 18.3768 4.39453 18.4939 4.5408 18.575C4.68708 18.6561 4.85167 18.6983 5.01891 18.6978H5.89172C7.57345 18.6978 9.23871 18.3666 10.7924 17.723C12.3461 17.0794 13.7579 16.1361 14.947 14.947C16.1362 13.7578 17.0795 12.3461 17.723 10.7924C18.3666 9.23866 18.6978 7.57341 18.6978 5.89168V5.01883C18.6984 4.85159 18.6561 4.687 18.575 4.54073C18.494 4.39445 18.3768 4.27136 18.2347 4.18317ZM17.4478 5.89168C17.4478 12.2638 12.2638 17.4478 5.89172 17.4478H5.18547L4.07977 15.2032L7.36805 12.737L9.1988 14.11H9.40712C10.654 14.1086 11.8495 13.6126 12.7312 12.7309C13.6129 11.8492 14.1089 10.6538 14.1102 9.40684V9.19852L12.7372 7.36782L15.2032 4.07973L17.4478 5.18563V5.89168Z" fill="white"/>
</svg>
