<svg xmlns="http://www.w3.org/2000/svg" xmlns:xlink="http://www.w3.org/1999/xlink" width="500" zoomAndPan="magnify" viewBox="0 0 375 374.999991" height="500" preserveAspectRatio="xMidYMid meet" version="1.0"><defs><g/><clipPath id="id1"><path d="M 118.746094 155 L 255 155 L 255 220 L 118.746094 220 Z M 118.746094 155 " clip-rule="nonzero"/></clipPath><clipPath id="id2"><path d="M 155.628906 107.339844 L 219.378906 107.339844 L 219.378906 162.839844 L 155.628906 162.839844 Z M 155.628906 107.339844 " clip-rule="nonzero"/></clipPath><clipPath id="id3"><path d="M 167 63.507812 L 185 63.507812 L 185 81 L 167 81 Z M 167 63.507812 " clip-rule="nonzero"/></clipPath><clipPath id="id4"><path d="M 147.035156 100 L 210 100 L 210 162.507812 L 147.035156 162.507812 Z M 147.035156 100 " clip-rule="nonzero"/></clipPath></defs><rect x="-37.5" width="450" fill="#ffffff" y="-37.499999" height="449.999989" fill-opacity="1"/><rect x="-37.5" width="450" fill="#ffffff" y="-37.499999" height="449.999989" fill-opacity="1"/><rect x="-37.5" width="450" fill="#ffffff" y="-37.499999" height="449.999989" fill-opacity="1"/><rect x="-37.5" width="450" fill="#ffffff" y="-37.499999" height="449.999989" fill-opacity="1"/><path fill="#4f1964" d="M 237.945312 168.90625 C 228.078125 178.648438 210.890625 183.445312 202.265625 185.335938 C 213.613281 180.132812 226.289062 171.074219 236.769531 155.449219 C 236.769531 155.445312 240.570312 159.742188 237.945312 168.90625 Z M 237.945312 168.90625 " fill-opacity="1" fill-rule="nonzero"/><g clip-path="url(#id1)"><path fill="#4f1964" d="M 118.746094 204.410156 C 118.746094 204.410156 129.71875 175.03125 153.488281 171.617188 C 177.261719 168.199219 181.375 177.992188 208.121094 168.425781 C 208.121094 168.425781 212.691406 182.773438 184.121094 186.417969 C 184.121094 186.417969 181.148438 192.109375 190.066406 192.109375 C 198.980469 192.109375 230.523438 188.140625 252.46875 155.441406 C 252.46875 155.441406 262.753906 167.058594 237.839844 192.792969 C 212.925781 218.527344 181.378906 231.742188 118.746094 204.410156 Z M 118.746094 204.410156 " fill-opacity="1" fill-rule="nonzero"/></g><path fill="#4f1964" d="M 215.199219 122.265625 C 210.664062 117.746094 203.316406 117.746094 198.78125 122.265625 L 192.667969 128.351562 L 186.558594 122.265625 C 182.023438 117.746094 174.671875 117.746094 170.140625 122.265625 C 167.875 124.523438 166.742188 127.480469 166.742188 130.441406 C 166.742188 133.402344 167.875 136.363281 170.140625 138.625 L 192.671875 161.074219 L 192.675781 161.074219 L 215.203125 138.625 C 219.734375 134.105469 219.734375 126.78125 215.199219 122.265625 Z M 200.96875 143.035156 L 195.738281 143.035156 L 195.738281 148.246094 L 189.589844 148.246094 L 189.589844 143.035156 L 184.363281 143.035156 L 184.363281 136.910156 L 189.589844 136.910156 L 189.589844 131.699219 L 195.738281 131.699219 L 195.738281 136.910156 L 200.96875 136.910156 Z M 200.96875 143.035156 " fill-opacity="1" fill-rule="nonzero"/><g clip-path="url(#id2)"><path fill="#ffffff" d="M 155.632812 107.339844 L 219.375 107.339844 L 219.375 162.839844 L 155.632812 162.839844 L 155.632812 107.339844 " fill-opacity="1" fill-rule="nonzero"/></g><path fill="#4f1964" d="M 226.355469 141.65625 L 209.964844 115.765625 C 208.324219 112.871094 206.269531 110.511719 202.941406 110.511719 L 183.636719 110.511719 L 183.410156 107.539062 L 199.503906 107.539062 C 201.738281 107.539062 203.738281 105.867188 203.851562 103.644531 C 203.976562 101.269531 202.085938 99.304688 199.738281 99.304688 L 182.78125 99.304688 L 182.09375 90.285156 C 181.785156 86.253906 178.273438 83.246094 174.230469 83.542969 C 170.199219 83.851562 167.179688 87.367188 167.484375 91.398438 L 169.546875 117.289062 C 169.835938 121.101562 173.019531 124.050781 176.847656 124.050781 L 202.25 124.050781 C 202.65625 124.050781 203.035156 124.261719 203.246094 124.609375 L 217.070312 147.527344 C 218.117188 149.179688 219.898438 150.082031 221.71875 150.082031 C 222.722656 150.082031 223.738281 149.808594 224.648438 149.230469 C 227.214844 147.609375 227.976562 144.21875 226.355469 141.65625 Z M 226.355469 141.65625 " fill-opacity="1" fill-rule="nonzero"/><g clip-path="url(#id3)"><path fill="#4f1964" d="M 184.171875 72.085938 C 184.171875 72.648438 184.117188 73.207031 184.007812 73.757812 C 183.898438 74.3125 183.734375 74.847656 183.519531 75.367188 C 183.304688 75.886719 183.039062 76.382812 182.726562 76.851562 C 182.414062 77.320312 182.058594 77.753906 181.660156 78.152344 C 181.261719 78.550781 180.828125 78.90625 180.359375 79.21875 C 179.890625 79.53125 179.394531 79.792969 178.875 80.011719 C 178.355469 80.226562 177.816406 80.386719 177.265625 80.5 C 176.710938 80.609375 176.152344 80.664062 175.589844 80.664062 C 175.027344 80.664062 174.46875 80.609375 173.914062 80.5 C 173.363281 80.386719 172.828125 80.226562 172.304688 80.011719 C 171.785156 79.792969 171.289062 79.53125 170.820312 79.21875 C 170.351562 78.90625 169.917969 78.550781 169.519531 78.152344 C 169.121094 77.753906 168.765625 77.320312 168.453125 76.851562 C 168.140625 76.382812 167.875 75.886719 167.660156 75.367188 C 167.445312 74.847656 167.28125 74.3125 167.171875 73.757812 C 167.0625 73.207031 167.007812 72.648438 167.007812 72.085938 C 167.007812 71.523438 167.0625 70.964844 167.171875 70.414062 C 167.28125 69.859375 167.445312 69.324219 167.660156 68.804688 C 167.875 68.285156 168.140625 67.789062 168.453125 67.320312 C 168.765625 66.851562 169.121094 66.417969 169.519531 66.019531 C 169.917969 65.621094 170.351562 65.265625 170.820312 64.953125 C 171.289062 64.640625 171.785156 64.378906 172.304688 64.160156 C 172.828125 63.945312 173.363281 63.785156 173.914062 63.671875 C 174.46875 63.5625 175.027344 63.507812 175.589844 63.507812 C 176.152344 63.507812 176.710938 63.5625 177.265625 63.671875 C 177.816406 63.785156 178.355469 63.945312 178.875 64.160156 C 179.394531 64.378906 179.890625 64.640625 180.359375 64.953125 C 180.828125 65.265625 181.261719 65.621094 181.660156 66.019531 C 182.058594 66.417969 182.414062 66.851562 182.726562 67.320312 C 183.039062 67.789062 183.304688 68.285156 183.519531 68.804688 C 183.734375 69.324219 183.898438 69.859375 184.007812 70.414062 C 184.117188 70.964844 184.171875 71.523438 184.171875 72.085938 Z M 184.171875 72.085938 " fill-opacity="1" fill-rule="nonzero"/></g><g clip-path="url(#id4)"><path fill="#4f1964" d="M 205.699219 137.792969 C 202.148438 148.417969 192.105469 156.105469 180.292969 156.105469 C 165.527344 156.105469 153.511719 144.101562 153.511719 129.34375 C 153.511719 120.5625 157.769531 112.753906 164.328125 107.871094 L 163.773438 100.597656 C 153.820312 106.332031 147.101562 117.066406 147.101562 129.34375 C 147.101562 147.632812 161.992188 162.507812 180.292969 162.507812 C 193.179688 162.507812 204.367188 155.125 209.863281 144.375 Z M 205.699219 137.792969 " fill-opacity="1" fill-rule="nonzero"/></g><g fill="#3e3e3e" fill-opacity="1"><g transform="translate(66.004333, 246.781229)"><g><path d="M 5.347656 -11.15625 L 6.382812 -11.15625 C 7.414062 -11.15625 7.554688 -10.191406 7.554688 -9.320312 C 7.554688 -8.496094 7.371094 -7.347656 6.382812 -7.347656 L 5.347656 -7.347656 Z M 1.238281 0 L 5.347656 0 L 5.347656 -4.269531 L 6.359375 -4.269531 C 9.640625 -4.269531 11.867188 -5.761719 11.867188 -9.25 C 11.867188 -12.625 9.664062 -14.210938 6.382812 -14.210938 L 1.238281 -14.210938 Z M 1.238281 0 "/></g></g></g><g fill="#3e3e3e" fill-opacity="1"><g transform="translate(80.008491, 246.781229)"><g><path d="M 1.011719 -4.386719 C 1.011719 -0.988281 3.582031 0.253906 6.65625 0.253906 C 9.710938 0.253906 12.28125 -1.054688 12.28125 -4.453125 L 12.28125 -14.234375 L 8.128906 -14.234375 L 8.128906 -4.429688 C 8.128906 -3.351562 7.757812 -2.824219 6.65625 -2.824219 C 5.578125 -2.824219 5.164062 -3.375 5.164062 -4.429688 L 5.164062 -14.234375 L 1.011719 -14.234375 Z M 1.011719 -4.386719 "/></g></g></g><g fill="#3e3e3e" fill-opacity="1"><g transform="translate(94.839108, 246.781229)"><g><path d="M 5.347656 0 L 5.347656 -5.074219 L 8.265625 0 L 12.671875 0 L 9.480469 -5.003906 C 11.089844 -5.625 11.867188 -6.75 11.867188 -9.503906 C 11.867188 -12.695312 9.640625 -14.234375 6.863281 -14.234375 L 1.238281 -14.234375 L 1.238281 0 Z M 5.371094 -11.15625 L 6.082031 -11.15625 C 7.347656 -11.15625 7.53125 -10.628906 7.53125 -9.480469 C 7.53125 -8.035156 7.347656 -7.667969 6.128906 -7.667969 L 5.371094 -7.667969 Z M 5.371094 -11.15625 "/></g></g></g><g fill="#3e3e3e" fill-opacity="1"><g transform="translate(108.866237, 246.781229)"><g><path d="M 5.347656 -11.15625 L 6.382812 -11.15625 C 7.414062 -11.15625 7.554688 -10.191406 7.554688 -9.320312 C 7.554688 -8.496094 7.371094 -7.347656 6.382812 -7.347656 L 5.347656 -7.347656 Z M 1.238281 0 L 5.347656 0 L 5.347656 -4.269531 L 6.359375 -4.269531 C 9.640625 -4.269531 11.867188 -5.761719 11.867188 -9.25 C 11.867188 -12.625 9.664062 -14.210938 6.382812 -14.210938 L 1.238281 -14.210938 Z M 1.238281 0 "/></g></g></g><g fill="#3e3e3e" fill-opacity="1"><g transform="translate(122.870394, 246.781229)"><g><path d="M 1.238281 0 L 10.007812 0 L 10.007812 -3.078125 L 5.347656 -3.078125 L 5.347656 -14.234375 L 1.238281 -14.234375 Z M 1.238281 0 "/></g></g></g><g fill="#3e3e3e" fill-opacity="1"><g transform="translate(134.693639, 246.781229)"><g><path d="M 1.238281 -14.234375 L 1.238281 0 L 10.90625 0 L 10.90625 -3.078125 L 5.347656 -3.078125 L 5.347656 -6.152344 L 9.734375 -6.152344 L 9.734375 -9.230469 L 5.347656 -9.230469 L 5.347656 -11.15625 L 10.355469 -11.15625 L 10.355469 -14.234375 Z M 1.238281 -14.234375 "/></g></g></g><g fill="#3e3e3e" fill-opacity="1"><g transform="translate(147.366299, 246.781229)"><g/></g></g><g fill="#3e3e3e" fill-opacity="1"><g transform="translate(152.807495, 246.781229)"><g><path d="M 4.203125 0 L 8.402344 0 L 12.765625 -14.234375 L 8.378906 -14.234375 L 6.3125 -5.257812 L 4.246094 -14.234375 L -0.183594 -14.234375 Z M 4.203125 0 "/></g></g></g><g fill="#3e3e3e" fill-opacity="1"><g transform="translate(166.926453, 246.781229)"><g><path d="M 1.238281 -14.234375 L 1.238281 0 L 10.90625 0 L 10.90625 -3.078125 L 5.347656 -3.078125 L 5.347656 -6.152344 L 9.734375 -6.152344 L 9.734375 -9.230469 L 5.347656 -9.230469 L 5.347656 -11.15625 L 10.355469 -11.15625 L 10.355469 -14.234375 Z M 1.238281 -14.234375 "/></g></g></g><g fill="#3e3e3e" fill-opacity="1"><g transform="translate(179.599113, 246.781229)"><g><path d="M 9.964844 -13.589844 C 8.5625 -14.117188 7.253906 -14.464844 5.671875 -14.464844 C 2.6875 -14.464844 0.597656 -13.132812 0.597656 -10.191406 C 0.597656 -6.429688 6.222656 -5.738281 6.222656 -3.949219 C 6.222656 -3.03125 5.234375 -2.800781 4.179688 -2.800781 C 2.894531 -2.800781 2.203125 -3.054688 1.148438 -3.28125 L 0.460938 -0.253906 C 2.113281 0.09375 3.375 0.230469 4.957031 0.230469 C 9.527344 0.230469 10.332031 -2.179688 10.332031 -4.039062 C 10.332031 -8.355469 4.589844 -8.976562 4.589844 -10.46875 C 4.589844 -11.386719 5.625 -11.433594 6.246094 -11.433594 C 7.277344 -11.433594 7.964844 -11.316406 8.976562 -10.90625 Z M 9.964844 -13.589844 "/></g></g></g><g fill="#3e3e3e" fill-opacity="1"><g transform="translate(191.743754, 246.781229)"><g><path d="M 0.277344 -14.234375 L 0.277344 -11.15625 L 3.789062 -11.15625 L 3.789062 0 L 7.898438 0 L 7.898438 -11.15625 L 11.316406 -11.15625 L 11.316406 -14.234375 Z M 0.277344 -14.234375 "/></g></g></g><g fill="#3e3e3e" fill-opacity="1"><g transform="translate(204.875552, 246.781229)"><g/></g></g><g fill="#3e3e3e" fill-opacity="1"><g transform="translate(210.316748, 246.781229)"><g><path d="M 4.9375 -7.164062 L 7.230469 0 L 10.171875 0 L 12.464844 -7.164062 L 12.050781 0 L 16.160156 0 L 16.160156 -14.234375 L 11.890625 -14.234375 L 8.679688 -5.074219 L 5.28125 -14.234375 L 1.238281 -14.234375 L 1.238281 0 L 5.347656 0 Z M 4.9375 -7.164062 "/></g></g></g><g fill="#3e3e3e" fill-opacity="1"><g transform="translate(229.256673, 246.781229)"><g><path d="M 1.238281 0 L 5.347656 0 L 5.347656 -14.234375 L 1.238281 -14.234375 Z M 1.238281 0 "/></g></g></g><g fill="#3e3e3e" fill-opacity="1"><g transform="translate(237.383831, 246.781229)"><g><path d="M 9.964844 -13.589844 C 8.5625 -14.117188 7.253906 -14.464844 5.671875 -14.464844 C 2.6875 -14.464844 0.597656 -13.132812 0.597656 -10.191406 C 0.597656 -6.429688 6.222656 -5.738281 6.222656 -3.949219 C 6.222656 -3.03125 5.234375 -2.800781 4.179688 -2.800781 C 2.894531 -2.800781 2.203125 -3.054688 1.148438 -3.28125 L 0.460938 -0.253906 C 2.113281 0.09375 3.375 0.230469 4.957031 0.230469 C 9.527344 0.230469 10.332031 -2.179688 10.332031 -4.039062 C 10.332031 -8.355469 4.589844 -8.976562 4.589844 -10.46875 C 4.589844 -11.386719 5.625 -11.433594 6.246094 -11.433594 C 7.277344 -11.433594 7.964844 -11.316406 8.976562 -10.90625 Z M 9.964844 -13.589844 "/></g></g></g><g fill="#3e3e3e" fill-opacity="1"><g transform="translate(249.528472, 246.781229)"><g><path d="M 9.964844 -13.589844 C 8.5625 -14.117188 7.253906 -14.464844 5.671875 -14.464844 C 2.6875 -14.464844 0.597656 -13.132812 0.597656 -10.191406 C 0.597656 -6.429688 6.222656 -5.738281 6.222656 -3.949219 C 6.222656 -3.03125 5.234375 -2.800781 4.179688 -2.800781 C 2.894531 -2.800781 2.203125 -3.054688 1.148438 -3.28125 L 0.460938 -0.253906 C 2.113281 0.09375 3.375 0.230469 4.957031 0.230469 C 9.527344 0.230469 10.332031 -2.179688 10.332031 -4.039062 C 10.332031 -8.355469 4.589844 -8.976562 4.589844 -10.46875 C 4.589844 -11.386719 5.625 -11.433594 6.246094 -11.433594 C 7.277344 -11.433594 7.964844 -11.316406 8.976562 -10.90625 Z M 9.964844 -13.589844 "/></g></g></g><g fill="#3e3e3e" fill-opacity="1"><g transform="translate(261.673113, 246.781229)"><g><path d="M 1.238281 0 L 5.347656 0 L 5.347656 -14.234375 L 1.238281 -14.234375 Z M 1.238281 0 "/></g></g></g><g fill="#3e3e3e" fill-opacity="1"><g transform="translate(269.800272, 246.781229)"><g><path d="M 5.003906 -7.140625 C 5.003906 -9.414062 5.347656 -11.363281 7.164062 -11.363281 C 8.953125 -11.363281 9.25 -9.414062 9.25 -7.117188 C 9.25 -4.820312 8.953125 -2.824219 7.164062 -2.824219 C 5.371094 -2.824219 5.003906 -4.867188 5.003906 -7.140625 Z M 0.644531 -7.117188 C 0.644531 -2.777344 2.546875 0.230469 7.164062 0.230469 C 11.707031 0.230469 13.613281 -2.847656 13.613281 -7.117188 C 13.613281 -11.386719 11.707031 -14.464844 7.164062 -14.464844 C 2.546875 -14.464844 0.644531 -11.457031 0.644531 -7.117188 Z M 0.644531 -7.117188 "/></g></g></g><g fill="#3e3e3e" fill-opacity="1"><g transform="translate(285.595086, 246.781229)"><g><path d="M 4.84375 -7.1875 L 8.3125 0 L 12.097656 0 L 12.097656 -14.234375 L 8.515625 -14.234375 L 8.515625 -5.855469 L 4.773438 -14.234375 L 1.238281 -14.234375 L 1.238281 0 L 4.84375 0 Z M 4.84375 -7.1875 "/></g></g></g><g fill="#3e3e3e" fill-opacity="1"><g transform="translate(300.461348, 246.781229)"><g/></g></g><g fill="#3e3e3e" fill-opacity="1"><g transform="translate(305.902546, 246.781229)"><g/></g></g><g fill="#3e3e3e" fill-opacity="1"><g transform="translate(311.343744, 246.781229)"><g/></g></g><g fill="#3e3e3e" fill-opacity="1"><g transform="translate(104.702121, 267.320433)"><g><path d="M 0.703125 -9.421875 L 2.78125 -9.421875 L 2.78125 -1.40625 L 4.953125 -1.40625 L 4.953125 0 L 0.703125 0 Z M 0.703125 -9.421875 "/></g></g></g><g fill="#3e3e3e" fill-opacity="1"><g transform="translate(112.978095, 267.320433)"><g><path d="M 0.703125 -9.421875 L 4.9375 -9.421875 L 4.9375 -8.015625 L 2.78125 -8.015625 L 2.78125 -5.671875 L 4.421875 -5.671875 L 4.421875 -4.21875 L 2.78125 -4.21875 L 2.78125 -1.40625 L 4.953125 -1.40625 L 4.953125 0 L 0.703125 0 Z M 0.703125 -9.421875 "/></g></g></g><g fill="#3e3e3e" fill-opacity="1"><g transform="translate(121.300613, 267.320433)"><g><path d="M 2.03125 -9.421875 L 4.40625 -9.421875 L 6.15625 0 L 4.234375 0 L 3.921875 -1.984375 L 2.53125 -1.984375 L 2.21875 0 L 0.25 0 Z M 3.71875 -3.234375 L 3.21875 -6.921875 L 2.71875 -3.234375 Z M 3.71875 -3.234375 "/></g></g></g><g fill="#3e3e3e" fill-opacity="1"><g transform="translate(130.833343, 267.320433)"><g><path d="M 0.25 -9.421875 L 2.03125 -9.421875 L 3.046875 -3.03125 L 4 -9.421875 L 5.875 -9.421875 L 4.15625 0 L 1.953125 0 Z M 0.25 -9.421875 "/></g></g></g><g fill="#3e3e3e" fill-opacity="1"><g transform="translate(140.075165, 267.320433)"><g><path d="M 0.703125 -9.421875 L 4.9375 -9.421875 L 4.9375 -8.015625 L 2.78125 -8.015625 L 2.78125 -5.671875 L 4.421875 -5.671875 L 4.421875 -4.21875 L 2.78125 -4.21875 L 2.78125 -1.40625 L 4.953125 -1.40625 L 4.953125 0 L 0.703125 0 Z M 0.703125 -9.421875 "/></g></g></g><g fill="#3e3e3e" fill-opacity="1"><g transform="translate(148.397683, 267.320433)"><g/></g></g><g fill="#3e3e3e" fill-opacity="1"><g transform="translate(154.497598, 267.320433)"><g><path d="M 0.703125 -9.421875 L 2.171875 -9.421875 L 4.09375 -4.890625 L 4.09375 -9.421875 L 5.8125 -9.421875 L 5.8125 0 L 4.40625 0 L 2.484375 -4.890625 L 2.484375 0 L 0.703125 0 Z M 0.703125 -9.421875 "/></g></g></g><g fill="#3e3e3e" fill-opacity="1"><g transform="translate(164.146701, 267.320433)"><g><path d="M 3.40625 0.140625 C 2.382812 0.140625 1.65625 -0.117188 1.21875 -0.640625 C 0.789062 -1.171875 0.578125 -1.945312 0.578125 -2.96875 L 0.578125 -6.46875 C 0.578125 -7.5 0.789062 -8.269531 1.21875 -8.78125 C 1.65625 -9.300781 2.382812 -9.5625 3.40625 -9.5625 C 4.425781 -9.5625 5.15625 -9.300781 5.59375 -8.78125 C 6.03125 -8.257812 6.25 -7.488281 6.25 -6.46875 L 6.25 -2.96875 C 6.25 -1.945312 6.03125 -1.171875 5.59375 -0.640625 C 5.15625 -0.117188 4.425781 0.140625 3.40625 0.140625 Z M 3.40625 -1.34375 C 3.695312 -1.34375 3.890625 -1.441406 3.984375 -1.640625 C 4.078125 -1.835938 4.125 -2.101562 4.125 -2.4375 L 4.125 -6.984375 C 4.125 -7.335938 4.078125 -7.609375 3.984375 -7.796875 C 3.890625 -7.992188 3.695312 -8.09375 3.40625 -8.09375 C 3.125 -8.09375 2.9375 -7.992188 2.84375 -7.796875 C 2.75 -7.597656 2.703125 -7.328125 2.703125 -6.984375 L 2.703125 -2.4375 C 2.703125 -2.101562 2.742188 -1.835938 2.828125 -1.640625 C 2.910156 -1.441406 3.101562 -1.34375 3.40625 -1.34375 Z M 3.40625 -1.34375 "/></g></g></g><g fill="#3e3e3e" fill-opacity="1"><g transform="translate(174.086718, 267.320433)"><g/></g></g><g fill="#3e3e3e" fill-opacity="1"><g transform="translate(180.186636, 267.320433)"><g><path d="M 3.40625 0.140625 C 2.382812 0.140625 1.65625 -0.117188 1.21875 -0.640625 C 0.789062 -1.171875 0.578125 -1.945312 0.578125 -2.96875 L 0.578125 -6.46875 C 0.578125 -7.5 0.789062 -8.269531 1.21875 -8.78125 C 1.65625 -9.300781 2.382812 -9.5625 3.40625 -9.5625 C 4.425781 -9.5625 5.15625 -9.300781 5.59375 -8.78125 C 6.03125 -8.257812 6.25 -7.488281 6.25 -6.46875 L 6.25 -2.96875 C 6.25 -1.945312 6.03125 -1.171875 5.59375 -0.640625 C 5.15625 -0.117188 4.425781 0.140625 3.40625 0.140625 Z M 3.40625 -1.34375 C 3.695312 -1.34375 3.890625 -1.441406 3.984375 -1.640625 C 4.078125 -1.835938 4.125 -2.101562 4.125 -2.4375 L 4.125 -6.984375 C 4.125 -7.335938 4.078125 -7.609375 3.984375 -7.796875 C 3.890625 -7.992188 3.695312 -8.09375 3.40625 -8.09375 C 3.125 -8.09375 2.9375 -7.992188 2.84375 -7.796875 C 2.75 -7.597656 2.703125 -7.328125 2.703125 -6.984375 L 2.703125 -2.4375 C 2.703125 -2.101562 2.742188 -1.835938 2.828125 -1.640625 C 2.910156 -1.441406 3.101562 -1.34375 3.40625 -1.34375 Z M 3.40625 -1.34375 "/></g></g></g><g fill="#3e3e3e" fill-opacity="1"><g transform="translate(190.126653, 267.320433)"><g><path d="M 0.703125 -9.421875 L 2.171875 -9.421875 L 4.09375 -4.890625 L 4.09375 -9.421875 L 5.8125 -9.421875 L 5.8125 0 L 4.40625 0 L 2.484375 -4.890625 L 2.484375 0 L 0.703125 0 Z M 0.703125 -9.421875 "/></g></g></g><g fill="#3e3e3e" fill-opacity="1"><g transform="translate(199.775761, 267.320433)"><g><path d="M 0.703125 -9.421875 L 4.9375 -9.421875 L 4.9375 -8.015625 L 2.78125 -8.015625 L 2.78125 -5.671875 L 4.421875 -5.671875 L 4.421875 -4.21875 L 2.78125 -4.21875 L 2.78125 -1.40625 L 4.953125 -1.40625 L 4.953125 0 L 0.703125 0 Z M 0.703125 -9.421875 "/></g></g></g><g fill="#3e3e3e" fill-opacity="1"><g transform="translate(208.098281, 267.320433)"><g/></g></g><g fill="#3e3e3e" fill-opacity="1"><g transform="translate(214.198199, 267.320433)"><g><path d="M 0.703125 -9.421875 L 3.15625 -9.421875 C 3.769531 -9.421875 4.289062 -9.359375 4.71875 -9.234375 C 5.144531 -9.109375 5.488281 -8.863281 5.75 -8.5 C 6.019531 -8.132812 6.15625 -7.625 6.15625 -6.96875 C 6.15625 -6.40625 6.035156 -5.96875 5.796875 -5.65625 C 5.554688 -5.34375 5.210938 -5.144531 4.765625 -5.0625 C 5.316406 -4.988281 5.734375 -4.757812 6.015625 -4.375 C 6.304688 -3.988281 6.453125 -3.460938 6.453125 -2.796875 C 6.453125 -0.929688 5.5 0 3.59375 0 L 0.703125 0 Z M 3.1875 -5.65625 C 3.632812 -5.65625 3.9375 -5.753906 4.09375 -5.953125 C 4.25 -6.160156 4.328125 -6.476562 4.328125 -6.90625 C 4.328125 -7.28125 4.222656 -7.5625 4.015625 -7.75 C 3.816406 -7.9375 3.523438 -8.03125 3.140625 -8.03125 L 2.78125 -8.03125 L 2.78125 -5.65625 Z M 3.21875 -1.453125 C 3.664062 -1.453125 3.976562 -1.5625 4.15625 -1.78125 C 4.34375 -2.007812 4.4375 -2.359375 4.4375 -2.828125 C 4.4375 -3.359375 4.34375 -3.734375 4.15625 -3.953125 C 3.976562 -4.171875 3.664062 -4.28125 3.21875 -4.28125 L 2.78125 -4.28125 L 2.78125 -1.453125 Z M 3.21875 -1.453125 "/></g></g></g><g fill="#3e3e3e" fill-opacity="1"><g transform="translate(224.161494, 267.320433)"><g><path d="M 0.703125 -9.421875 L 4.9375 -9.421875 L 4.9375 -8.015625 L 2.78125 -8.015625 L 2.78125 -5.671875 L 4.421875 -5.671875 L 4.421875 -4.21875 L 2.78125 -4.21875 L 2.78125 -1.40625 L 4.953125 -1.40625 L 4.953125 0 L 0.703125 0 Z M 0.703125 -9.421875 "/></g></g></g><g fill="#3e3e3e" fill-opacity="1"><g transform="translate(232.484014, 267.320433)"><g><path d="M 0.734375 -9.421875 L 2.8125 -9.421875 L 2.8125 -5.609375 L 4.265625 -5.609375 L 4.265625 -9.421875 L 6.375 -9.421875 L 6.375 0 L 4.265625 0 L 4.265625 -4.125 L 2.8125 -4.125 L 2.8125 0 L 0.734375 0 Z M 0.734375 -9.421875 "/></g></g></g><g fill="#3e3e3e" fill-opacity="1"><g transform="translate(242.703313, 267.320433)"><g><path d="M 0.703125 -9.421875 L 2.796875 -9.421875 L 2.796875 0 L 0.703125 0 Z M 0.703125 -9.421875 "/></g></g></g><g fill="#3e3e3e" fill-opacity="1"><g transform="translate(249.326878, 267.320433)"><g><path d="M 0.703125 -9.421875 L 2.171875 -9.421875 L 4.09375 -4.890625 L 4.09375 -9.421875 L 5.8125 -9.421875 L 5.8125 0 L 4.40625 0 L 2.484375 -4.890625 L 2.484375 0 L 0.703125 0 Z M 0.703125 -9.421875 "/></g></g></g><g fill="#3e3e3e" fill-opacity="1"><g transform="translate(258.975986, 267.320433)"><g><path d="M 0.703125 -9.421875 L 3.078125 -9.421875 C 3.898438 -9.421875 4.539062 -9.320312 5 -9.125 C 5.457031 -8.925781 5.78125 -8.609375 5.96875 -8.171875 C 6.15625 -7.742188 6.25 -7.171875 6.25 -6.453125 L 6.25 -3.03125 C 6.25 -2.300781 6.15625 -1.71875 5.96875 -1.28125 C 5.78125 -0.84375 5.457031 -0.519531 5 -0.3125 C 4.539062 -0.101562 3.910156 0 3.109375 0 L 0.703125 0 Z M 3.109375 -1.4375 C 3.410156 -1.4375 3.632812 -1.484375 3.78125 -1.578125 C 3.925781 -1.671875 4.015625 -1.800781 4.046875 -1.96875 C 4.085938 -2.132812 4.109375 -2.378906 4.109375 -2.703125 L 4.109375 -6.8125 C 4.109375 -7.113281 4.085938 -7.34375 4.046875 -7.5 C 4.003906 -7.65625 3.910156 -7.769531 3.765625 -7.84375 C 3.617188 -7.925781 3.394531 -7.96875 3.09375 -7.96875 L 2.78125 -7.96875 L 2.78125 -1.4375 Z M 3.109375 -1.4375 "/></g></g></g></svg>