<svg width="20" height="20" viewBox="0 0 20 20" fill="none" xmlns="http://www.w3.org/2000/svg">
<path d="M8.33317 15C9.81232 14.9997 11.2488 14.5045 12.414 13.5933L16.0773 17.2567L17.2557 16.0783L13.5923 12.415C14.504 11.2497 14.9995 9.81287 14.9998 8.33334C14.9998 4.65751 12.009 1.66667 8.33317 1.66667C4.65734 1.66667 1.6665 4.65751 1.6665 8.33334C1.6665 12.0092 4.65734 15 8.33317 15ZM8.33317 3.33334C11.0907 3.33334 13.3332 5.57584 13.3332 8.33334C13.3332 11.0908 11.0907 13.3333 8.33317 13.3333C5.57567 13.3333 3.33317 11.0908 3.33317 8.33334C3.33317 5.57584 5.57567 3.33334 8.33317 3.33334Z" fill="#4742DD"/>
</svg>
