<svg width="36" height="36" viewBox="0 0 36 36" fill="none" xmlns="http://www.w3.org/2000/svg">
<circle cx="18" cy="18" r="18" fill="#5A995C"/>
<path d="M18 9C15.6131 9 13.3239 9.94821 11.636 11.636C9.94821 13.3239 9 15.6131 9 18C9 20.3869 9.94821 22.6761 11.636 24.364C13.3239 26.0518 15.6131 27 18 27C20.3869 27 22.6761 26.0518 24.364 24.364C26.0518 22.6761 27 20.3869 27 18C27 15.6131 26.0518 13.3239 24.364 11.636C22.6761 9.94821 20.3869 9 18 9V9ZM10.11 18.68H12.62C12.66 19.59 12.787 20.494 13 21.38H10.84C10.4372 20.5309 10.19 19.6164 10.11 18.68ZM18.68 13.28V10.19C19.6437 10.5562 20.4356 11.2696 20.9 12.19C21.105 12.537 21.286 12.898 21.44 13.27L18.68 13.28ZM21.9 14.63C22.132 15.513 22.27 16.418 22.31 17.33H18.68V14.63H21.9ZM17.32 10.19V13.28H14.56C14.7143 12.9077 14.8947 12.5468 15.1 12.2C15.5625 11.2759 16.3546 10.5587 17.32 10.19ZM17.32 14.63V17.33H13.7C13.74 16.418 13.878 15.513 14.11 14.63H17.32ZM12.62 17.32H10.11C10.19 16.3836 10.4372 15.4691 10.84 14.62H13C12.7866 15.5056 12.6593 16.4099 12.62 17.32ZM13.7 18.68H17.32V21.38H14.11C13.878 20.4971 13.7406 19.592 13.7 18.68ZM17.33 22.68V25.77C16.3663 25.4038 15.5744 24.6904 15.11 23.77C14.9047 23.4232 14.7243 23.0623 14.57 22.69L17.33 22.68ZM18.68 25.77V22.73H21.44C21.2857 23.1023 21.1053 23.4632 20.9 23.81C20.4356 24.7304 19.6437 25.4438 18.68 25.81V25.77ZM18.68 21.33V18.63H22.3C22.2594 19.542 22.122 20.4471 21.89 21.33H18.68ZM23.39 18.63H25.9C25.82 19.5664 25.5728 20.4809 25.17 21.33H23C23.21 20.46 23.337 19.573 23.38 18.68L23.39 18.63ZM23.39 17.28C23.3442 16.3863 23.2136 15.499 23 14.63H25.16C25.563 15.48 25.81 16.394 25.89 17.33L23.39 17.28ZM24.39 13.28H22.6C22.2761 12.3703 21.8067 11.5192 21.21 10.76C22.4544 11.3186 23.5353 12.1861 24.35 13.28H24.39ZM14.79 10.76C14.1933 11.5192 13.7239 12.3703 13.4 13.28H11.65C12.4647 12.1861 13.5456 11.3186 14.79 10.76ZM11.64 22.76H13.4C13.7239 23.6697 14.1933 24.5208 14.79 25.28C13.5422 24.713 12.4609 23.8349 11.65 22.73L11.64 22.76ZM21.2 25.28C21.7967 24.5208 22.2661 23.6697 22.59 22.76H24.35C23.5303 23.8393 22.4498 24.6927 21.21 25.24L21.2 25.28Z" fill="white"/>
</svg>
