<svg width="36" height="36" viewBox="0 0 36 36" fill="none" xmlns="http://www.w3.org/2000/svg">
<circle cx="18" cy="18" r="18" fill="#1B3284"/>
<path d="M21.125 9.875H14.875C14.0465 9.87599 13.2522 10.2056 12.6664 10.7914C12.0806 11.3772 11.751 12.1715 11.75 13V20.5C11.7523 21.1718 11.9715 21.8248 12.3749 22.362C12.7782 22.8991 13.3443 23.2917 13.9887 23.4813L12.8556 26.125H14.2156L15.2869 23.625H20.7131L21.7844 26.125H23.1444L22.0112 23.4813C22.6557 23.2917 23.2218 22.8991 23.6251 22.362C24.0285 21.8248 24.2477 21.1718 24.25 20.5V13C24.249 12.1715 23.9194 11.3772 23.3336 10.7914C22.7478 10.2056 21.9535 9.87599 21.125 9.875ZM14.875 11.125H21.125C21.5115 11.1261 21.8882 11.2469 22.2033 11.4707C22.5185 11.6945 22.7566 12.0104 22.885 12.375H13.115C13.2434 12.0104 13.4815 11.6945 13.7967 11.4707C14.1118 11.2469 14.4885 11.1261 14.875 11.125ZM23 19.875H21.125V21.125H22.885C22.7566 21.4896 22.5185 21.8055 22.2033 22.0293C21.8882 22.2531 21.5115 22.3739 21.125 22.375H14.875C14.4885 22.3739 14.1118 22.2531 13.7967 22.0293C13.4815 21.8055 13.2434 21.4896 13.115 21.125H14.875V19.875H13V18.625H23V19.875ZM23 17.375H13V13.625H23V17.375Z" fill="white"/>
</svg>
